<svg id="Ebene_1" data-name="Ebene 1" xmlns="http://www.w3.org/2000/svg" viewBox="0 0 698.06 95.3"><defs><style>.cls-1{fill:#1d1d1b;}</style></defs><title>DavidsFreunde_Logo</title><path class="cls-1" d="M50.78,107.52h-.21a15.33,15.33,0,0,1-6.31,5,19.66,19.66,0,0,1-8,1.75,21.82,21.82,0,0,1-10.45-2.45A24.18,24.18,0,0,1,18,105.34a28.83,28.83,0,0,1-4.79-9.19,35.22,35.22,0,0,1-1.63-10.6,33.83,33.83,0,0,1,1.63-10.39,28.44,28.44,0,0,1,4.79-9,24.11,24.11,0,0,1,7.67-6.37A21.68,21.68,0,0,1,36,57.37a20,20,0,0,1,8.1,1.74A16.56,16.56,0,0,1,50.57,64h.21V20.27H66v92.25H50.78Zm-11.09-6.74A10.34,10.34,0,0,0,45,99.42a13.6,13.6,0,0,0,4-3.49,15.9,15.9,0,0,0,2.5-4.78,17.1,17.1,0,0,0,0-10.77,16.07,16.07,0,0,0-2.5-4.79,13,13,0,0,0-4-3.42,11.28,11.28,0,0,0-10.55,0,12.92,12.92,0,0,0-4,3.42,15.84,15.84,0,0,0-2.5,4.79,17.1,17.1,0,0,0,0,10.77,15.67,15.67,0,0,0,2.5,4.78,13.56,13.56,0,0,0,4,3.49A10.38,10.38,0,0,0,39.69,100.78Z" transform="translate(-11.62 -18.97)"/><path class="cls-1" d="M127.37,112.52h-15v-4.89h-.22a16.63,16.63,0,0,1-6.42,4.89,19.63,19.63,0,0,1-8,1.75,21.75,21.75,0,0,1-10.44-2.45,24.21,24.21,0,0,1-7.73-6.48,28.61,28.61,0,0,1-4.78-9.19,34.92,34.92,0,0,1-1.64-10.6,33.54,33.54,0,0,1,1.64-10.39,28.22,28.22,0,0,1,4.78-9,24.22,24.22,0,0,1,7.67-6.37,21.68,21.68,0,0,1,10.28-2.39,20,20,0,0,1,8.11,1.74,19.11,19.11,0,0,1,6.8,5v-5h15Zm-26.22-11.74a10.38,10.38,0,0,0,5.28-1.36,14.15,14.15,0,0,0,4-3.49A15,15,0,0,0,113,91.15a17.1,17.1,0,0,0,0-10.77,15.14,15.14,0,0,0-2.56-4.79,13.46,13.46,0,0,0-4-3.42,11.3,11.3,0,0,0-10.56,0,12.88,12.88,0,0,0-4,3.42,15.87,15.87,0,0,0-2.51,4.79,17.1,17.1,0,0,0,0,10.77,15.7,15.7,0,0,0,2.51,4.78,13.52,13.52,0,0,0,4,3.49A10.38,10.38,0,0,0,101.15,100.78Z" transform="translate(-11.62 -18.97)"/><path class="cls-1" d="M160.22,89.24l11-30.13h16.64l-24.58,54.5h-7.84L131,59.11h16.75Z" transform="translate(-11.62 -18.97)"/><path class="cls-1" d="M199.82,27.67a8.63,8.63,0,0,1,6.42,2.67,9.13,9.13,0,0,1,0,12.78,9,9,0,0,1-15.45-6.42,8.77,8.77,0,0,1,2.61-6.36A8.63,8.63,0,0,1,199.82,27.67Zm7.61,84.85H192.2V59.11h15.23Z" transform="translate(-11.62 -18.97)"/><path class="cls-1" d="M254.32,107.52h-.22a15.33,15.33,0,0,1-6.31,5,19.63,19.63,0,0,1-8,1.75,21.75,21.75,0,0,1-10.44-2.45,24.21,24.21,0,0,1-7.73-6.48,28.61,28.61,0,0,1-4.78-9.19,34.91,34.91,0,0,1-1.63-10.6,33.54,33.54,0,0,1,1.63-10.39,28.22,28.22,0,0,1,4.78-9,24.22,24.22,0,0,1,7.67-6.37,21.68,21.68,0,0,1,10.28-2.39,20,20,0,0,1,8.11,1.74A16.6,16.6,0,0,1,254.1,64h.22V20.27h15.23v92.25H254.32Zm-11.1-6.74a10.38,10.38,0,0,0,5.28-1.36,13.56,13.56,0,0,0,4-3.49,15.67,15.67,0,0,0,2.5-4.78,17.1,17.1,0,0,0,0-10.77,15.84,15.84,0,0,0-2.5-4.79,12.92,12.92,0,0,0-4-3.42,11.28,11.28,0,0,0-10.55,0,12.8,12.8,0,0,0-4,3.42,15.87,15.87,0,0,0-2.51,4.79,17.1,17.1,0,0,0,0,10.77A15.7,15.7,0,0,0,234,95.93a13.44,13.44,0,0,0,4,3.49A10.32,10.32,0,0,0,243.22,100.78Z" transform="translate(-11.62 -18.97)"/><path class="cls-1" d="M307.84,71.73a16.65,16.65,0,0,0-3.7-2.61A9.17,9.17,0,0,0,299.79,68a5.26,5.26,0,0,0-3.43,1.31,4.05,4.05,0,0,0-1.57,3.26,3.46,3.46,0,0,0,.92,2.5,9.53,9.53,0,0,0,2.5,1.8,29.62,29.62,0,0,0,3.54,1.52c1.3.47,2.64,1,4,1.58a30.09,30.09,0,0,1,4,2.07,15.12,15.12,0,0,1,3.53,3,13.64,13.64,0,0,1,2.51,4.29,17.5,17.5,0,0,1,.92,6,17.92,17.92,0,0,1-1.69,7.94,18.28,18.28,0,0,1-4.51,5.93A20,20,0,0,1,304,113a24.42,24.42,0,0,1-26.82-7.62l7-9a23.58,23.58,0,0,0,5.06,4.35,11.4,11.4,0,0,0,6.26,1.85,6.31,6.31,0,0,0,4.3-1.58,5.32,5.32,0,0,0,1.79-4.19,4.46,4.46,0,0,0-.92-2.88,8.91,8.91,0,0,0-2.4-2,20.21,20.21,0,0,0-3.42-1.58c-1.31-.47-2.62-1-3.92-1.58s-2.61-1.23-3.92-2A13,13,0,0,1,283.53,84a13.28,13.28,0,0,1-2.4-3.86,14.48,14.48,0,0,1-.92-5.49,18.73,18.73,0,0,1,1.25-6.91,15.76,15.76,0,0,1,8.81-9.08,17.66,17.66,0,0,1,6.91-1.31,33.52,33.52,0,0,1,9.08,1.36,20.76,20.76,0,0,1,8.11,4.19Z" transform="translate(-11.62 -18.97)"/><path class="cls-1" d="M372.24,112.52H357V72h-5.12V59.11H357V43.44a39.06,39.06,0,0,1,1.09-9.35,21.93,21.93,0,0,1,3.48-7.78,17.66,17.66,0,0,1,6.2-5.33,19.83,19.83,0,0,1,9.35-2,15.68,15.68,0,0,1,7.29,1.74v13.6a31.67,31.67,0,0,0-3-1.31,9.24,9.24,0,0,0-3.21-.54,4.64,4.64,0,0,0-3.75,1.47,8.17,8.17,0,0,0-1.74,3.48,17.9,17.9,0,0,0-.49,4.29V59.11h12.18V72H372.24Z" transform="translate(-11.62 -18.97)"/><path class="cls-1" d="M404.65,64.66h.22a16.43,16.43,0,0,1,5.66-5.39,15.32,15.32,0,0,1,7.61-1.9,13.82,13.82,0,0,1,3.21.38,29.9,29.9,0,0,1,3.1.93l-1.84,14.14a10.81,10.81,0,0,0-6.31-2A11,11,0,0,0,410,72.44a10,10,0,0,0-3.54,4.13A18,18,0,0,0,405,82.28a59.68,59.68,0,0,0-.33,6.2v24H389.43V59.11h15.22Z" transform="translate(-11.62 -18.97)"/><path class="cls-1" d="M441.64,88.27a24.09,24.09,0,0,0,.54,5,15.51,15.51,0,0,0,1.75,4.58,9.5,9.5,0,0,0,3.26,3.35,10.4,10.4,0,0,0,11.26-.77,15.72,15.72,0,0,0,4-5.22l14,2.28a23.93,23.93,0,0,1-9.3,12.42,26.24,26.24,0,0,1-15,4.34A28.85,28.85,0,0,1,441,112.2a23.34,23.34,0,0,1-8.37-5.82,26.06,26.06,0,0,1-5.28-8.87,32.77,32.77,0,0,1-1.85-11.2,38.25,38.25,0,0,1,1.63-11.37A26.82,26.82,0,0,1,432,65.75a22.42,22.42,0,0,1,8.05-6.15,26.92,26.92,0,0,1,11.37-2.23,26.13,26.13,0,0,1,11.32,2.28,21.94,21.94,0,0,1,7.88,6.2,26.55,26.55,0,0,1,4.63,9.25,41.27,41.27,0,0,1,1.52,11.32v1.85Zm20.78-9.47a18.35,18.35,0,0,0-1.09-4,12.31,12.31,0,0,0-2.07-3.43,10.36,10.36,0,0,0-3-2.44A8.19,8.19,0,0,0,452.3,68a8.76,8.76,0,0,0-4.08.93,9.8,9.8,0,0,0-3,2.39,11.77,11.77,0,0,0-2,3.43,19.26,19.26,0,0,0-1.08,4Z" transform="translate(-11.62 -18.97)"/><path class="cls-1" d="M498.75,59.11V88.05a41.86,41.86,0,0,0,.27,4.68,13,13,0,0,0,1.2,4.29,8.62,8.62,0,0,0,2.61,3.16,9.18,9.18,0,0,0,9.25,0A8.62,8.62,0,0,0,514.69,97a13.23,13.23,0,0,0,1.2-4.29,41.86,41.86,0,0,0,.27-4.68V59.11h15.23V90.55q0,11.74-6,17.73t-17.95,6q-12,0-17.95-6t-6-17.73V59.11Z" transform="translate(-11.62 -18.97)"/><path class="cls-1" d="M557.28,64h.22a13.3,13.3,0,0,1,6.09-5.12,20.42,20.42,0,0,1,7.83-1.52,19.93,19.93,0,0,1,8.92,1.79A15,15,0,0,1,586.05,64a19.26,19.26,0,0,1,3,7.12,42,42,0,0,1,.87,8.76v32.63H574.68V84.24c0-1.59,0-3.26-.1-5a17.63,17.63,0,0,0-.82-4.74A7.71,7.71,0,0,0,571.37,71a9.13,9.13,0,0,0-10.18.27,10,10,0,0,0-2.71,4.19,19.38,19.38,0,0,0-1,5.38c-.11,1.93-.16,3.69-.16,5.28v26.43H542.05V59.11h15.23Z" transform="translate(-11.62 -18.97)"/><path class="cls-1" d="M636.15,107.52h-.22a15.33,15.33,0,0,1-6.31,5,19.63,19.63,0,0,1-8,1.75,21.75,21.75,0,0,1-10.44-2.45,24.11,24.11,0,0,1-7.73-6.48,28.61,28.61,0,0,1-4.78-9.19A34.92,34.92,0,0,1,597,85.55a33.54,33.54,0,0,1,1.64-10.39,28.22,28.22,0,0,1,4.78-9,24.11,24.11,0,0,1,7.67-6.37,21.68,21.68,0,0,1,10.28-2.39,20,20,0,0,1,8.11,1.74,16.6,16.6,0,0,1,6.47,4.9h.22V20.27h15.23v92.25H636.15Zm-11.1-6.74a10.38,10.38,0,0,0,5.28-1.36,13.56,13.56,0,0,0,4-3.49,15.67,15.67,0,0,0,2.5-4.78,17.1,17.1,0,0,0,0-10.77,15.84,15.84,0,0,0-2.5-4.79,12.92,12.92,0,0,0-4-3.42,11.3,11.3,0,0,0-10.56,0,13,13,0,0,0-4,3.42,16.07,16.07,0,0,0-2.5,4.79,17.1,17.1,0,0,0,0,10.77,15.9,15.9,0,0,0,2.5,4.78,13.69,13.69,0,0,0,4,3.49A10.38,10.38,0,0,0,625.05,100.78Z" transform="translate(-11.62 -18.97)"/><path class="cls-1" d="M674.55,88.27a24.09,24.09,0,0,0,.54,5,15.23,15.23,0,0,0,1.74,4.58,9.62,9.62,0,0,0,3.27,3.35,9.23,9.23,0,0,0,5,1.3,9.38,9.38,0,0,0,6.26-2.07,15.72,15.72,0,0,0,4-5.22l14,2.28a24,24,0,0,1-9.3,12.42,26.26,26.26,0,0,1-15,4.34A28.85,28.85,0,0,1,674,112.2a23.47,23.47,0,0,1-8.38-5.82,26.2,26.2,0,0,1-5.27-8.87,32.53,32.53,0,0,1-1.85-11.2,38.25,38.25,0,0,1,1.63-11.37,26.82,26.82,0,0,1,4.84-9.19A22.33,22.33,0,0,1,673,59.6a26.92,26.92,0,0,1,11.37-2.23,26.06,26.06,0,0,1,11.31,2.28,22.06,22.06,0,0,1,7.89,6.2,26.37,26.37,0,0,1,4.62,9.25,40.9,40.9,0,0,1,1.53,11.32v1.85Zm20.78-9.47a18.94,18.94,0,0,0-1.09-4,12.31,12.31,0,0,0-2.07-3.43,10.4,10.4,0,0,0-3-2.44,8.15,8.15,0,0,0-3.91-.93,8.73,8.73,0,0,0-4.08.93,9.85,9.85,0,0,0-3,2.39,12,12,0,0,0-2,3.43,19.28,19.28,0,0,0-1.09,4Z" transform="translate(-11.62 -18.97)"/></svg>