<svg id="Ebene_1" data-name="Ebene 1" xmlns="http://www.w3.org/2000/svg" viewBox="0 0 706.75 706.75"><defs><style>.cls-1{fill:#ff0;}.cls-2{fill:#1e2337;}</style></defs><title>Icon_1_Groß</title><rect class="cls-1" width="706.75" height="706.75" rx="353.37"/><rect class="cls-2" x="314.03" y="248.36" width="34.51" height="71.84"/><path class="cls-2" d="M493.72,562.11V538.83a41,41,0,0,1,1.12-9.74,18.72,18.72,0,0,1,3.94-7.89c1.88-2.22,4.72-3.33,8.5-3.33a20.59,20.59,0,0,1,7.27,1.24,69.71,69.71,0,0,1,6.78,2.95V491.25a35.46,35.46,0,0,0-16.51-3.95q-12.58,0-21.21,4.56a40.44,40.44,0,0,0-14.05,12.08,50.14,50.14,0,0,0-7.88,17.63,88.82,88.82,0,0,0-2.47,21.2v19.34Z" transform="translate(-67.57 -241.9)"/><path class="cls-2" d="M399.67,622.82a38.7,38.7,0,0,1,1.42,3.64,38.76,38.76,0,0,1,0,24.4,36.07,36.07,0,0,1-5.67,10.85,30.66,30.66,0,0,1-9,7.88,24.67,24.67,0,0,1-23.91,0,30.66,30.66,0,0,1-9-7.88,35.85,35.85,0,0,1-5.67-10.85,38.63,38.63,0,0,1,1.42-28H312.42a76.35,76.35,0,0,0-1.55,15.35,79.43,79.43,0,0,0,3.69,24A65.28,65.28,0,0,0,325.41,683a54.81,54.81,0,0,0,17.5,14.67,49.3,49.3,0,0,0,23.67,5.55,44.5,44.5,0,0,0,18.24-4A34.93,34.93,0,0,0,399.11,688h.5V699.3h34.51V622.82Z" transform="translate(-67.57 -241.9)"/><rect class="cls-2" x="409.64" y="380.92" width="34.51" height="76.48"/><path class="cls-2" d="M416.25,562.11H381.74v27.24h-.49a37.7,37.7,0,0,0-14.66-11.09,45.39,45.39,0,0,0-18.36-3.94,49,49,0,0,0-23.3,5.42,54.5,54.5,0,0,0-17.38,14.42,64.16,64.16,0,0,0-10.85,20.46,76,76,0,0,0-2.14,8.2H331.4a35,35,0,0,1,4.25-7.22,29.18,29.18,0,0,1,9-7.76,25.62,25.62,0,0,1,23.91,0,29.29,29.29,0,0,1,9,7.76,35.36,35.36,0,0,1,4.24,7.22h34.45Z" transform="translate(-67.57 -241.9)"/><polygon class="cls-2" points="426.13 380.91 426.13 365.45 453.74 365.45 453.74 336.36 426.13 336.36 426.13 320.2 391.62 320.2 391.62 336.36 380.03 336.36 380.03 365.45 391.62 365.45 391.62 380.91 426.13 380.91"/></svg>