<svg id="Ebene_1" data-name="Ebene 1" xmlns="http://www.w3.org/2000/svg" viewBox="0 0 706.75 706.75"><defs><style>.cls-1{fill:#ff0;}.cls-2{fill:#1e2337;}</style></defs><title>Icon_1_Groß</title><rect class="cls-1" width="706.75" height="706.75" rx="353.37"/><rect class="cls-2" x="275.93" y="160.26" width="63.47" height="132.12"/><path class="cls-2" d="M549.69,534.89V492.07a75.49,75.49,0,0,1,2-17.9A34.68,34.68,0,0,1,559,459.66q5.22-6.14,15.65-6.12A38.16,38.16,0,0,1,588,455.81a126,126,0,0,1,12.48,5.43V404.58a65.38,65.38,0,0,0-30.37-7.26q-23.15,0-39,8.39a74,74,0,0,0-25.84,22.21,92,92,0,0,0-14.5,32.41,164.26,164.26,0,0,0-4.53,39v35.57Z" transform="translate(-67.57 -242.51)"/><path class="cls-2" d="M376.72,646.54a71.19,71.19,0,0,1,2.62,51.56,66.21,66.21,0,0,1-10.43,19.95,56.62,56.62,0,0,1-16.55,14.51,45.53,45.53,0,0,1-44,0,56.2,56.2,0,0,1-16.54-14.51,65.32,65.32,0,0,1-10.43-19.95,71.14,71.14,0,0,1,0-44.87,68.76,68.76,0,0,1,2.61-6.69H216.27a140.64,140.64,0,0,0-2.85,28.22,146.26,146.26,0,0,0,6.79,44.2,120,120,0,0,0,20,38.31,100.68,100.68,0,0,0,32.18,27q19,10.2,43.52,10.21a81.88,81.88,0,0,0,33.54-7.26,64.13,64.13,0,0,0,26.29-20.86h.91v20.86h63.46V646.54Z" transform="translate(-67.57 -242.51)"/><rect class="cls-2" x="451.76" y="404.03" width="63.47" height="140.65"/><path class="cls-2" d="M407.23,534.88H343.76V585h-.9a69.48,69.48,0,0,0-27-20.4,83.55,83.55,0,0,0-33.77-7.25q-24,0-42.84,10a100.12,100.12,0,0,0-32,26.51,118.12,118.12,0,0,0-19.95,37.63,140.39,140.39,0,0,0-4,15.07h67.76A64.6,64.6,0,0,1,259,633.27,53.41,53.41,0,0,1,275.55,619a47,47,0,0,1,44,0,53.75,53.75,0,0,1,16.55,14.27,64.56,64.56,0,0,1,7.81,13.26h63.36Z" transform="translate(-67.57 -242.51)"/><polygon class="cls-2" points="482.08 404.02 482.08 375.58 532.85 375.58 532.85 322.08 482.08 322.08 482.08 292.37 418.61 292.37 418.61 322.08 397.3 322.08 397.3 375.58 418.61 375.58 418.61 404.02 482.08 404.02"/></svg>